<svg version="1.1" viewBox="0.000000 0.000000 4841.000000 1623.800000" xmlns="http://www.w3.org/2000/svg" xmlns:xlink="http://www.w3.org/1999/xlink" id="Layer_1" overflow="hidden"><g id="Layer_4"></g><g id="Logotype"><g transform="matrix(1.351116,0.000000,0.000000,1.351116,12.027972,51.233262)"><g><path d=" M 125.400002 344.299988 L 125.400002 542.000000 L 145.600006 553.599976 L 169.899994 567.000000 L 328.700012 658.700012 L 531.400024 775.599976 L 679.799988 862.000000 L 713.299988 881.299988 L 724.299988 887.500000 L 897.000000 789.599976 L 897.000000 344.299988 L 511.299988 121.699997 L 125.400002 344.299988 Z M 852.599976 763.700012 L 725.599976 837.000000 L 553.799988 737.900024 L 351.000000 620.900024 L 170.000000 516.400024 L 170.000000 370.100006 L 511.299988 173.000000 L 852.599976 370.100006 L 852.599976 763.700012 Z" id="rnd1" fill="#FF6600"/><path d=" M 681.000000 914.099976 L 653.099976 898.099976 L 653.099976 898.099976 L 534.400024 829.000000 L 267.299988 675.500000 L 148.600006 606.299988 L 148.600006 606.299988 L 125.500000 593.500000 L 125.500000 789.400024 L 511.299988 1012.000000 L 681.000000 914.099976 Z M 169.899994 669.900024 L 511.200012 866.700012 L 511.200012 866.700012 L 592.500000 913.599976 L 511.200012 960.799988 L 169.899994 763.700012 L 169.899994 669.900024 Z" id="rnd2" fill="#FF6600"/></g></g></g><g id="Layer_3"><g><path d=" M 1783.400024 815.599976 C 1773.099976 837.900024 1759.300049 856.500000 1741.800049 871.500000 C 1724.300049 886.500000 1703.900024 897.799988 1680.699951 905.299988 C 1657.400024 912.799988 1632.699951 916.599976 1606.599976 916.599976 L 1487.800049 916.599976 L 1487.800049 1108.400024 L 1432.599976 1108.400024 L 1432.599976 564.799988 L 1615.699951 564.799988 C 1643.199951 564.799988 1668.199951 568.799988 1690.800049 576.799988 C 1713.400024 584.799988 1732.699951 596.200012 1748.800049 611.000000 C 1764.900024 625.799988 1777.199951 643.900024 1785.800049 665.299988 C 1794.400024 686.799988 1798.699951 711.000000 1798.699951 737.900024 C 1798.800049 767.500000 1793.699951 793.400024 1783.400024 815.599976 Z M 1707.500000 651.400024 C 1683.400024 631.500000 1651.599976 621.500000 1611.900024 621.500000 L 1487.900024 621.500000 L 1487.900024 860.700012 L 1609.099976 860.700012 C 1629.199951 860.700012 1647.500000 857.900024 1664.099976 852.200012 C 1680.699951 846.500000 1694.900024 838.400024 1706.800049 827.700012 C 1718.699951 817.099976 1727.800049 804.400024 1734.099976 789.700012 C 1740.400024 774.900024 1743.599976 758.500000 1743.599976 740.400024 C 1743.599976 701.000000 1731.599976 671.299988 1707.500000 651.400024 Z" fill="#FF6600"/><path d=" M 2226.800049 988.400024 C 2217.199951 1014.000000 2204.100098 1036.400024 2187.300049 1055.599976 C 2170.500000 1074.800049 2150.500000 1089.900024 2127.199951 1101.000000 C 2103.899902 1112.099976 2078.699951 1117.699951 2051.699951 1117.699951 C 2024.699951 1117.699951 1999.699951 1112.099976 1976.900024 1101.000000 C 1954.099976 1089.900024 1934.300049 1074.900024 1917.500000 1056.000000 C 1900.699951 1037.099976 1887.699951 1015.000000 1878.400024 989.599976 C 1869.099976 964.200012 1864.400024 937.299988 1864.400024 908.799988 C 1864.400024 880.299988 1869.099976 853.299988 1878.400024 827.700012 C 1887.699951 802.099976 1900.800049 779.700012 1917.500000 760.500000 C 1934.300049 741.400024 1954.199951 726.200012 1977.199951 715.099976 C 2000.300049 704.000000 2025.500000 698.400024 2053.000000 698.400024 C 2080.000000 698.400024 2105.100098 704.000000 2128.100098 715.099976 C 2151.199951 726.200012 2171.100098 741.200012 2187.800049 760.099976 C 2204.600098 779.000000 2217.600098 801.099976 2226.899902 826.500000 C 2236.199951 851.900024 2240.899902 878.799988 2240.899902 907.299988 C 2241.100098 935.700012 2236.399902 962.799988 2226.800049 988.400024 Z M 2175.800049 847.200012 C 2169.000000 828.099976 2159.600098 811.400024 2147.500000 797.299988 C 2135.399902 783.099976 2121.199951 771.900024 2104.899902 763.599976 C 2088.600098 755.299988 2070.899902 751.200012 2051.800049 751.200012 C 2032.199951 751.200012 2014.300049 755.200012 1998.000000 763.200012 C 1981.699951 771.200012 1967.800049 782.299988 1956.400024 796.500000 C 1945.000000 810.700012 1936.000000 827.200012 1929.500000 846.099976 C 1923.000000 865.000000 1919.699951 885.200012 1919.699951 906.900024 C 1919.699951 928.599976 1923.099976 949.000000 1929.800049 968.099976 C 1936.599976 987.200012 1945.900024 1003.700012 1957.800049 1017.700012 C 1969.699951 1031.599976 1983.800049 1042.699951 2000.099976 1051.000000 C 2016.400024 1059.300049 2034.099976 1063.400024 2053.199951 1063.400024 C 2072.800049 1063.400024 2090.699951 1059.400024 2107.000000 1051.400024 C 2123.300049 1043.400024 2137.300049 1032.400024 2148.899902 1018.500000 C 2160.500000 1004.599976 2169.600098 988.200012 2176.199951 969.299988 C 2182.699951 950.500000 2186.000000 930.200012 2186.000000 908.500000 C 2185.899902 886.700012 2182.600098 866.299988 2175.800049 847.200012 Z" fill="#FF6600"/><path d=" M 2576.199951 1046.599976 C 2569.399902 1061.400024 2560.399902 1073.900024 2548.899902 1084.300049 C 2537.500000 1094.699951 2524.000000 1102.599976 2508.399902 1108.000000 C 2492.800049 1113.400024 2475.899902 1116.199951 2457.699951 1116.199951 C 2431.600098 1116.199951 2405.300049 1110.900024 2378.699951 1100.300049 C 2352.100098 1089.699951 2328.600098 1075.300049 2308.100098 1057.199951 L 2335.399902 1014.500000 C 2355.000000 1031.099976 2375.300049 1043.699951 2396.500000 1052.500000 C 2417.699951 1061.300049 2439.000000 1065.699951 2460.399902 1065.699951 C 2482.300049 1065.699951 2500.199951 1060.000000 2514.199951 1048.599976 C 2528.199951 1037.199951 2535.199951 1021.700012 2535.199951 1002.000000 L 2535.199951 1000.400024 C 2535.199951 990.599976 2532.699951 982.000000 2527.899902 974.799988 C 2523.000000 967.599976 2516.399902 961.200012 2508.000000 955.799988 C 2499.600098 950.400024 2489.899902 945.599976 2479.000000 941.400024 C 2468.000000 937.299988 2456.699951 933.400024 2445.100098 929.799988 C 2431.100098 925.099976 2417.000000 920.099976 2402.800049 914.700012 C 2388.600098 909.299988 2375.800049 902.400024 2364.399902 894.099976 C 2353.000000 885.799988 2343.699951 875.500000 2336.399902 863.000000 C 2329.199951 850.599976 2325.600098 835.000000 2325.600098 816.400024 L 2325.600098 814.799988 C 2325.600098 797.700012 2328.600098 782.099976 2334.699951 767.799988 C 2340.699951 753.599976 2349.300049 741.400024 2360.199951 731.299988 C 2371.100098 721.200012 2384.199951 713.400024 2399.300049 708.000000 C 2414.399902 702.599976 2430.899902 699.799988 2448.600098 699.799988 C 2471.000000 699.799988 2493.600098 703.799988 2516.399902 711.799988 C 2539.199951 719.799988 2560.000000 730.599976 2578.600098 744.000000 L 2554.100098 789.000000 C 2537.300049 777.099976 2519.699951 767.599976 2501.300049 760.700012 C 2482.899902 753.700012 2464.800049 750.200012 2447.199951 750.200012 C 2425.800049 750.200012 2408.800049 755.799988 2396.199951 766.900024 C 2383.600098 778.000000 2377.300049 791.900024 2377.300049 808.400024 L 2377.300049 810.000000 C 2377.300049 819.299988 2379.899902 827.500000 2385.000000 834.500000 C 2390.100098 841.500000 2397.000000 847.599976 2405.600098 852.700012 C 2414.199951 857.900024 2424.100098 862.500000 2435.300049 866.700012 C 2446.500000 870.799988 2458.100098 875.000000 2470.199951 879.099976 C 2484.199951 883.799988 2498.000000 888.900024 2511.800049 894.599976 C 2525.500000 900.299988 2538.000000 907.500000 2549.199951 916.299988 C 2560.399902 925.099976 2569.300049 935.700012 2576.100098 948.099976 C 2582.800049 960.500000 2586.199951 975.799988 2586.199951 993.900024 L 2586.199951 995.500000 C 2586.300049 1014.900024 2583.000000 1031.900024 2576.199951 1046.599976 Z" fill="#FF6600"/><path d=" M 3075.199951 1061.400024 C 3061.500000 1073.000000 3046.699951 1083.000000 3030.800049 1091.300049 C 3015.000000 1099.599976 2998.000000 1106.099976 2979.800049 1110.699951 C 2961.600098 1115.400024 2941.399902 1117.699951 2919.000000 1117.699951 C 2883.600098 1117.699951 2851.000000 1110.400024 2821.199951 1096.000000 C 2791.399902 1081.500000 2765.500000 1061.699951 2743.600098 1036.599976 C 2721.699951 1011.500000 2704.600098 981.900024 2692.199951 947.700012 C 2679.899902 913.500000 2673.699951 876.799988 2673.699951 837.400024 C 2673.699951 798.599976 2679.899902 762.099976 2692.199951 727.900024 C 2704.500000 693.700012 2721.699951 663.799988 2743.600098 638.200012 C 2765.500000 612.599976 2791.600098 592.400024 2821.899902 577.599976 C 2852.199951 562.799988 2885.199951 555.500000 2921.100098 555.500000 C 2943.500000 555.500000 2963.600098 557.599976 2981.500000 561.700012 C 2999.399902 565.799988 3016.100098 571.700012 3031.500000 579.200012 C 3046.899902 586.700012 3061.100098 595.799988 3074.100098 606.400024 C 3087.100098 617.000000 3099.699951 628.799988 3111.800049 641.700012 L 3074.100098 686.700012 C 3053.100098 665.000000 3030.699951 647.099976 3006.699951 633.099976 C 2982.699951 619.099976 2953.899902 612.099976 2920.399902 612.099976 C 2893.399902 612.099976 2868.300049 617.799988 2845.300049 629.200012 C 2822.199951 640.599976 2802.199951 656.400024 2785.199951 676.599976 C 2768.199951 696.799988 2754.899902 720.500000 2745.399902 747.599976 C 2735.800049 774.799988 2731.100098 804.200012 2731.100098 835.700012 C 2731.100098 867.299988 2735.899902 896.799988 2745.399902 924.200012 C 2754.899902 951.599976 2768.199951 975.400024 2785.199951 995.599976 C 2802.199951 1015.799988 2822.199951 1031.699951 2845.300049 1043.400024 C 2868.399902 1055.000000 2893.399902 1060.900024 2920.399902 1060.900024 C 2953.899902 1060.900024 2982.800049 1054.000000 3007.100098 1040.300049 C 3031.300049 1026.599976 3055.100098 1007.299988 3078.399902 982.500000 L 3114.699951 1022.099976 C 3102.100098 1036.699951 3088.899902 1049.699951 3075.199951 1061.400024 Z" fill="#FF6600"/><path d=" M 3206.899902 1108.300049 L 3206.899902 541.500000 L 3260.699951 541.500000 L 3260.699951 1108.300049 L 3206.899902 1108.300049 Z" fill="#FF6600"/><path d=" M 3725.699951 988.400024 C 3716.100098 1014.000000 3703.000000 1036.400024 3686.199951 1055.599976 C 3669.399902 1074.800049 3649.399902 1089.900024 3626.100098 1101.000000 C 3602.800049 1112.099976 3577.600098 1117.699951 3550.600098 1117.699951 C 3523.600098 1117.699951 3498.600098 1112.099976 3475.800049 1101.000000 C 3453.000000 1089.900024 3433.199951 1074.900024 3416.399902 1056.000000 C 3399.600098 1037.099976 3386.600098 1015.000000 3377.300049 989.599976 C 3368.000000 964.200012 3363.300049 937.299988 3363.300049 908.799988 C 3363.300049 880.299988 3367.899902 853.299988 3377.300049 827.700012 C 3386.600098 802.099976 3399.699951 779.700012 3416.399902 760.500000 C 3433.199951 741.400024 3453.100098 726.200012 3476.199951 715.099976 C 3499.300049 704.000000 3524.500000 698.400024 3552.000000 698.400024 C 3579.000000 698.400024 3604.100098 704.000000 3627.100098 715.099976 C 3650.199951 726.200012 3670.100098 741.200012 3686.899902 760.099976 C 3703.699951 779.000000 3716.699951 801.099976 3726.000000 826.500000 C 3735.300049 851.900024 3740.000000 878.799988 3740.000000 907.299988 C 3740.000000 935.700012 3735.300049 962.799988 3725.699951 988.400024 Z M 3674.699951 847.200012 C 3667.899902 828.099976 3658.500000 811.400024 3646.399902 797.299988 C 3634.300049 783.099976 3620.100098 771.900024 3603.800049 763.599976 C 3587.500000 755.299988 3569.800049 751.200012 3550.699951 751.200012 C 3531.100098 751.200012 3513.199951 755.200012 3496.899902 763.200012 C 3480.600098 771.200012 3466.699951 782.299988 3455.300049 796.500000 C 3443.899902 810.700012 3434.899902 827.200012 3428.399902 846.099976 C 3421.899902 865.000000 3418.600098 885.200012 3418.600098 906.900024 C 3418.600098 928.599976 3422.000000 949.000000 3428.699951 968.099976 C 3435.399902 987.200012 3444.800049 1003.700012 3456.600098 1017.700012 C 3468.500000 1031.599976 3482.600098 1042.699951 3498.899902 1051.000000 C 3515.199951 1059.300049 3532.899902 1063.400024 3552.000000 1063.400024 C 3571.600098 1063.400024 3589.500000 1059.400024 3605.800049 1051.400024 C 3622.100098 1043.400024 3636.100098 1032.400024 3647.699951 1018.500000 C 3659.300049 1004.599976 3668.399902 988.200012 3675.000000 969.299988 C 3681.500000 950.500000 3684.800049 930.200012 3684.800049 908.500000 C 3684.800049 886.700012 3681.500000 866.299988 3674.699951 847.200012 Z" fill="#FF6600"/><path d=" M 4093.600098 706.900024 L 4146.700195 706.900024 L 4146.700195 1108.300049 L 4093.600098 1108.300049 L 4093.600098 1038.400024 C 4081.500000 1060.099976 4065.699951 1078.699951 4046.100098 1093.900024 C 4026.500000 1109.199951 4001.100098 1116.800049 3969.899902 1116.800049 C 3948.000000 1116.800049 3928.600098 1112.900024 3911.600098 1105.099976 C 3894.600098 1097.300049 3880.199951 1086.300049 3868.300049 1072.099976 C 3856.399902 1057.900024 3847.300049 1040.900024 3841.000000 1021.200012 C 3834.699951 1001.500000 3831.600098 979.799988 3831.600098 956.000000 L 3831.600098 706.900024 L 3885.399902 706.900024 L 3885.399902 941.400024 C 3885.399902 978.700012 3894.000000 1008.200012 3911.300049 1029.900024 C 3928.500000 1051.599976 3953.199951 1062.500000 3985.399902 1062.500000 C 4000.800049 1062.500000 4015.100098 1059.500000 4028.399902 1053.599976 C 4041.699951 1047.699951 4053.100098 1039.099976 4062.600098 1028.000000 C 4072.100098 1016.900024 4079.699951 1003.500000 4085.300049 988.000000 C 4090.899902 972.500000 4093.699951 955.400024 4093.699951 936.799988 L 4093.600098 706.900024 L 4093.600098 706.900024 Z" fill="#FF6600"/><path d=" M 4557.600098 1108.300049 L 4557.600098 1027.599976 C 4550.100098 1039.500000 4541.899902 1050.900024 4532.799805 1061.800049 C 4523.700195 1072.699951 4513.600098 1082.300049 4502.399902 1090.500000 C 4491.200195 1098.800049 4478.799805 1105.300049 4465.000000 1109.900024 C 4451.299805 1114.599976 4436.000000 1116.900024 4419.200195 1116.900024 C 4397.299805 1116.900024 4376.100098 1112.199951 4355.600098 1102.900024 C 4335.100098 1093.599976 4316.700195 1080.000000 4300.399902 1062.099976 C 4284.100098 1044.199951 4271.000000 1022.400024 4261.299805 996.500000 C 4251.500000 970.599976 4246.600098 941.099976 4246.600098 908.000000 C 4246.600098 874.900024 4251.500000 845.400024 4261.299805 819.500000 C 4271.100098 793.599976 4284.100098 771.700012 4300.399902 753.900024 C 4316.700195 736.000000 4335.100098 722.299988 4355.600098 712.700012 C 4376.100098 703.099976 4397.299805 698.299988 4419.200195 698.299988 C 4436.000000 698.299988 4451.299805 700.599976 4465.299805 705.299988 C 4479.299805 710.000000 4491.899902 716.200012 4503.000000 723.900024 C 4514.200195 731.700012 4524.299805 740.700012 4533.399902 751.099976 C 4542.500000 761.500000 4550.500000 772.299988 4557.500000 783.700012 L 4557.500000 541.500000 L 4611.299805 541.500000 L 4611.299805 1108.300049 L 4557.600098 1108.300049 Z M 4548.899902 843.900024 C 4541.700195 824.799988 4531.899902 808.599976 4519.500000 795.200012 C 4507.200195 781.799988 4493.200195 771.400024 4477.600098 763.900024 C 4462.000000 756.400024 4445.799805 752.700012 4429.000000 752.700012 C 4411.299805 752.700012 4394.799805 756.200012 4379.399902 763.099976 C 4364.000000 770.099976 4350.600098 780.099976 4339.200195 793.200012 C 4327.799805 806.299988 4318.700195 822.599976 4311.899902 841.900024 C 4305.100098 861.200012 4301.799805 883.000000 4301.799805 907.200012 C 4301.799805 930.900024 4305.200195 952.299988 4311.899902 971.299988 C 4318.600098 990.400024 4327.899902 1006.700012 4339.500000 1020.400024 C 4351.100098 1034.000000 4364.700195 1044.500000 4380.000000 1051.699951 C 4395.399902 1058.900024 4411.700195 1062.500000 4428.899902 1062.500000 C 4445.700195 1062.500000 4461.899902 1058.800049 4477.500000 1051.300049 C 4493.100098 1043.800049 4507.100098 1033.400024 4519.399902 1020.000000 C 4531.700195 1006.599976 4541.500000 990.299988 4548.799805 970.900024 C 4556.000000 951.599976 4559.600098 930.299988 4559.600098 907.200012 C 4559.700195 884.099976 4556.100098 863.000000 4548.899902 843.900024 Z" fill="#FF6600"/></g><g><path d=" M 4753.600098 578.799988 C 4750.500000 586.299988 4746.100098 592.799988 4740.700195 598.400024 C 4735.200195 604.000000 4728.700195 608.500000 4721.299805 611.700012 C 4713.799805 615.000000 4705.899902 616.599976 4697.299805 616.599976 C 4688.700195 616.599976 4680.799805 615.000000 4673.399902 611.799988 C 4666.000000 608.599976 4659.600098 604.200012 4654.200195 598.599976 C 4648.799805 593.099976 4644.500000 586.500000 4641.299805 579.099976 C 4638.200195 571.599976 4636.600098 563.700012 4636.600098 555.299988 C 4636.600098 546.900024 4638.200195 539.000000 4641.299805 531.500000 C 4644.399902 524.000000 4648.700195 517.500000 4654.200195 511.899994 C 4659.700195 506.299988 4666.200195 501.799988 4673.600098 498.600006 C 4681.000000 495.299988 4689.000000 493.700012 4697.500000 493.700012 C 4706.000000 493.700012 4714.000000 495.299988 4721.399902 498.500000 C 4728.799805 501.700012 4735.200195 506.100006 4740.600098 511.700012 C 4746.000000 517.200012 4750.299805 523.799988 4753.500000 531.200012 C 4756.600098 538.700012 4758.200195 546.599976 4758.200195 555.000000 C 4758.299805 563.400024 4756.799805 571.299988 4753.600098 578.799988 Z M 4749.100098 533.000000 C 4746.299805 526.099976 4742.399902 520.099976 4737.399902 515.000000 C 4732.399902 509.799988 4726.500000 505.799988 4719.799805 502.899994 C 4713.000000 500.000000 4705.700195 498.500000 4697.700195 498.500000 C 4689.700195 498.500000 4682.299805 500.000000 4675.500000 503.000000 C 4668.700195 506.000000 4662.799805 510.100006 4657.799805 515.200012 C 4652.799805 520.400024 4648.899902 526.400024 4646.000000 533.299988 C 4643.100098 540.200012 4641.700195 547.599976 4641.700195 555.400024 C 4641.700195 563.200012 4643.100098 570.599976 4645.899902 577.400024 C 4648.700195 584.299988 4652.600098 590.299988 4657.600098 595.400024 C 4662.600098 600.599976 4668.500000 604.599976 4675.299805 607.500000 C 4682.100098 610.400024 4689.399902 611.900024 4697.399902 611.900024 C 4705.399902 611.900024 4712.799805 610.400024 4719.600098 607.400024 C 4726.399902 604.400024 4732.299805 600.299988 4737.299805 595.200012 C 4742.299805 590.000000 4746.200195 584.000000 4749.100098 577.099976 C 4752.000000 570.200012 4753.399902 562.799988 4753.399902 555.000000 C 4753.299805 547.200012 4751.899902 539.900024 4749.100098 533.000000 Z M 4719.799805 552.599976 C 4716.700195 555.599976 4712.700195 557.599976 4707.600098 558.500000 L 4728.100098 584.599976 L 4718.700195 584.599976 L 4699.200195 559.599976 L 4681.399902 559.599976 L 4681.399902 584.599976 L 4674.200195 584.599976 L 4674.200195 522.400024 L 4701.799805 522.400024 C 4708.399902 522.400024 4713.799805 524.000000 4718.100098 527.200012 C 4722.399902 530.400024 4724.500000 534.799988 4724.500000 540.400024 C 4724.399902 545.500000 4722.799805 549.599976 4719.799805 552.599976 Z M 4712.700195 532.299988 C 4710.000000 530.299988 4706.200195 529.299988 4701.399902 529.299988 L 4681.399902 529.299988 L 4681.399902 552.900024 L 4700.600098 552.900024 C 4705.299805 552.900024 4709.200195 551.900024 4712.299805 549.799988 C 4715.399902 547.700012 4716.899902 544.700012 4716.899902 540.700012 C 4716.799805 537.200012 4715.399902 534.299988 4712.700195 532.299988 Z" fill="#FF6600"/></g><g display="none"><g display="inline"><path d=" M 914.099976 2177.500000 L 892.700012 2129.800049 L 793.200012 2129.800049 L 771.799988 2177.500000 L 758.799988 2177.500000 L 837.299988 2005.900024 L 849.299988 2005.900024 L 927.799988 2177.500000 L 914.099976 2177.500000 Z M 843.099976 2019.800049 L 798.500000 2118.399902 L 887.400024 2118.399902 L 843.099976 2019.800049 Z" fill="#F16622"/><path d=" M 1181.699951 2125.899902 C 1177.400024 2136.300049 1171.199951 2145.300049 1163.300049 2152.899902 C 1155.400024 2160.500000 1145.900024 2166.500000 1134.900024 2170.899902 C 1123.900024 2175.300049 1111.800049 2177.500000 1098.699951 2177.500000 L 1042.599976 2177.500000 L 1042.599976 2007.099976 L 1098.699951 2007.099976 C 1111.900024 2007.099976 1123.900024 2009.300049 1134.900024 2013.599976 C 1145.900024 2017.900024 1155.400024 2023.900024 1163.300049 2031.500000 C 1171.199951 2039.099976 1177.400024 2048.100098 1181.699951 2058.399902 C 1186.000000 2068.699951 1188.199951 2079.899902 1188.199951 2091.899902 L 1188.199951 2092.399902 C 1188.199951 2104.399902 1186.000000 2115.600098 1181.699951 2125.899902 Z M 1175.199951 2092.300049 C 1175.199951 2082.199951 1173.400024 2072.699951 1169.800049 2063.699951 C 1166.199951 2054.699951 1161.099976 2046.900024 1154.500000 2040.300049 C 1147.900024 2033.599976 1139.900024 2028.300049 1130.400024 2024.400024 C 1120.900024 2020.500000 1110.300049 2018.500000 1098.599976 2018.500000 L 1055.000000 2018.500000 L 1055.000000 2166.000000 L 1098.599976 2166.000000 C 1110.300049 2166.000000 1120.900024 2164.100098 1130.400024 2160.300049 C 1139.900024 2156.500000 1147.900024 2151.300049 1154.500000 2144.699951 C 1161.099976 2138.100098 1166.199951 2130.399902 1169.800049 2121.500000 C 1173.400024 2112.600098 1175.199951 2103.100098 1175.199951 2092.800049 L 1175.199951 2092.300049 L 1175.199951 2092.300049 Z" fill="#F16622"/><path d=" M 1234.199951 2177.500000 L 1234.199951 2007.099976 L 1246.699951 2007.099976 L 1246.699951 2166.100098 L 1345.699951 2166.100098 L 1345.699951 2177.500000 L 1234.199951 2177.500000 L 1234.199951 2177.500000 Z" fill="#F16622"/><path d=" M 1532.900024 2125.800049 C 1528.800049 2136.399902 1523.099976 2145.800049 1515.699951 2153.899902 C 1508.300049 2162.000000 1499.400024 2168.500000 1488.800049 2173.300049 C 1478.300049 2178.100098 1466.699951 2180.500000 1454.000000 2180.500000 C 1441.199951 2180.500000 1429.599976 2178.100098 1419.199951 2173.300049 C 1408.800049 2168.500000 1400.000000 2162.100098 1392.599976 2154.100098 C 1385.199951 2146.100098 1379.500000 2136.800049 1375.500000 2126.199951 C 1371.500000 2115.699951 1369.500000 2104.500000 1369.500000 2092.899902 L 1369.500000 2092.399902 C 1369.500000 2080.699951 1371.500000 2069.600098 1375.599976 2058.899902 C 1379.699951 2048.300049 1385.400024 2038.900024 1392.800049 2030.800049 C 1400.199951 2022.699951 1409.099976 2016.199951 1419.500000 2011.400024 C 1429.900024 2006.599976 1441.599976 2004.199951 1454.400024 2004.199951 C 1467.099976 2004.199951 1478.599976 2006.599976 1489.099976 2011.400024 C 1499.500000 2016.199951 1508.400024 2022.599976 1515.800049 2030.599976 C 1523.199951 2038.599976 1528.900024 2047.900024 1532.900024 2058.500000 C 1536.900024 2069.000000 1538.900024 2080.199951 1538.900024 2091.800049 C 1539.099976 2092.000000 1539.099976 2092.100098 1538.900024 2092.300049 C 1539.000000 2104.000000 1537.000000 2115.199951 1532.900024 2125.800049 Z M 1526.000000 2092.300049 C 1526.000000 2081.800049 1524.199951 2071.800049 1520.599976 2062.500000 C 1517.000000 2053.199951 1512.000000 2045.099976 1505.699951 2038.199951 C 1499.400024 2031.300049 1491.800049 2025.800049 1482.900024 2021.800049 C 1474.099976 2017.699951 1464.400024 2015.699951 1454.000000 2015.699951 C 1443.599976 2015.699951 1434.000000 2017.699951 1425.199951 2021.699951 C 1416.500000 2025.699951 1408.900024 2031.099976 1402.599976 2038.000000 C 1396.300049 2044.900024 1391.300049 2053.000000 1387.800049 2062.199951 C 1384.300049 2071.500000 1382.500000 2081.399902 1382.500000 2091.899902 L 1382.500000 2092.399902 C 1382.500000 2103.000000 1384.300049 2112.899902 1387.900024 2122.199951 C 1391.500000 2131.500000 1396.500000 2139.600098 1402.800049 2146.500000 C 1409.099976 2153.399902 1416.699951 2158.899902 1425.599976 2162.899902 C 1434.400024 2167.000000 1444.099976 2169.000000 1454.500000 2169.000000 C 1464.900024 2169.000000 1474.500000 2167.000000 1483.300049 2163.000000 C 1492.000000 2159.000000 1499.599976 2153.600098 1505.900024 2146.699951 C 1512.199951 2139.800049 1517.199951 2131.699951 1520.699951 2122.500000 C 1524.199951 2113.300049 1526.000000 2103.399902 1526.000000 2092.800049 L 1526.000000 2092.300049 Z" fill="#F16622"/><path d=" M 1790.099976 2162.800049 C 1785.400024 2166.399902 1780.300049 2169.600098 1774.900024 2172.199951 C 1769.500000 2174.800049 1763.699951 2176.800049 1757.400024 2178.300049 C 1751.099976 2179.800049 1744.300049 2180.500000 1736.900024 2180.500000 C 1724.900024 2180.500000 1713.699951 2178.199951 1703.400024 2173.699951 C 1693.099976 2169.199951 1684.300049 2163.000000 1676.800049 2155.100098 C 1669.300049 2147.199951 1663.500000 2137.899902 1659.300049 2127.199951 C 1655.099976 2116.500000 1653.000000 2105.000000 1653.000000 2092.899902 L 1653.000000 2092.399902 C 1653.000000 2080.399902 1655.099976 2069.000000 1659.400024 2058.300049 C 1663.599976 2047.599976 1669.500000 2038.199951 1677.000000 2030.199951 C 1684.500000 2022.199951 1693.300049 2015.800049 1703.599976 2011.199951 C 1713.900024 2006.599976 1725.099976 2004.300049 1737.300049 2004.300049 C 1744.800049 2004.300049 1751.699951 2005.000000 1757.800049 2006.300049 C 1763.900024 2007.599976 1769.599976 2009.500000 1774.800049 2011.900024 C 1780.000000 2014.300049 1784.900024 2017.199951 1789.500000 2020.500000 C 1794.099976 2023.800049 1798.500000 2027.500000 1802.900024 2031.599976 L 1794.000000 2040.900024 C 1790.300049 2037.300049 1786.500000 2034.000000 1782.400024 2030.900024 C 1778.400024 2027.800049 1774.099976 2025.199951 1769.500000 2023.000000 C 1764.900024 2020.800049 1759.900024 2019.099976 1754.599976 2017.800049 C 1749.199951 2016.500000 1743.400024 2015.900024 1737.099976 2015.900024 C 1727.000000 2015.900024 1717.599976 2017.800049 1708.900024 2021.699951 C 1700.199951 2025.599976 1692.699951 2031.000000 1686.400024 2037.900024 C 1680.099976 2044.800049 1675.099976 2052.899902 1671.500000 2062.100098 C 1667.900024 2071.399902 1666.099976 2081.300049 1666.099976 2092.000000 L 1666.099976 2092.500000 C 1666.099976 2103.199951 1667.900024 2113.199951 1671.599976 2122.600098 C 1675.300049 2131.899902 1680.300049 2140.000000 1686.599976 2146.899902 C 1692.900024 2153.800049 1700.400024 2159.199951 1709.099976 2163.199951 C 1717.800049 2167.199951 1727.199951 2169.199951 1737.300049 2169.199951 C 1749.500000 2169.199951 1760.099976 2166.899902 1769.099976 2162.399902 C 1778.099976 2157.899902 1786.800049 2151.300049 1795.300049 2142.699951 L 1803.699951 2151.000000 C 1799.400024 2155.100098 1794.800049 2159.199951 1790.099976 2162.800049 Z" fill="#F16622"/><path d=" M 1949.699951 2140.300049 C 1946.599976 2148.100098 1942.199951 2155.000000 1936.500000 2161.000000 C 1930.800049 2167.000000 1924.099976 2171.800049 1916.400024 2175.199951 C 1908.699951 2178.600098 1900.300049 2180.399902 1891.099976 2180.399902 C 1881.900024 2180.399902 1873.599976 2178.699951 1865.900024 2175.199951 C 1858.300049 2171.699951 1851.699951 2167.000000 1846.000000 2161.199951 C 1840.400024 2155.399902 1836.000000 2148.500000 1832.900024 2140.800049 C 1829.800049 2133.000000 1828.199951 2124.699951 1828.199951 2116.000000 L 1828.199951 2115.500000 C 1828.199951 2106.699951 1829.800049 2098.500000 1832.900024 2090.699951 C 1836.000000 2082.899902 1840.400024 2076.000000 1846.099976 2070.000000 C 1851.800049 2064.000000 1858.500000 2059.300049 1866.199951 2055.800049 C 1873.900024 2052.300049 1882.300049 2050.600098 1891.500000 2050.600098 C 1900.599976 2050.600098 1909.000000 2052.300049 1916.699951 2055.800049 C 1924.300049 2059.300049 1930.900024 2064.000000 1936.599976 2069.800049 C 1942.199951 2075.600098 1946.599976 2082.500000 1949.699951 2090.199951 C 1952.800049 2098.000000 1954.400024 2106.300049 1954.400024 2115.000000 L 1954.400024 2115.500000 C 1954.400024 2124.199951 1952.800049 2132.500000 1949.699951 2140.300049 Z M 1941.900024 2115.500000 C 1941.900024 2108.100098 1940.599976 2101.100098 1938.000000 2094.500000 C 1935.400024 2088.000000 1931.800049 2082.300049 1927.199951 2077.399902 C 1922.599976 2072.600098 1917.199951 2068.800049 1911.000000 2066.000000 C 1904.800049 2063.300049 1898.099976 2061.899902 1891.000000 2061.899902 C 1883.699951 2061.899902 1877.000000 2063.300049 1870.800049 2066.100098 C 1864.599976 2068.899902 1859.300049 2072.699951 1854.800049 2077.500000 C 1850.400024 2082.300049 1846.900024 2087.899902 1844.400024 2094.300049 C 1841.900024 2100.800049 1840.699951 2107.600098 1840.699951 2114.899902 L 1840.699951 2115.399902 C 1840.699951 2122.800049 1842.000000 2129.800049 1844.599976 2136.399902 C 1847.199951 2142.899902 1850.800049 2148.600098 1855.400024 2153.500000 C 1860.000000 2158.300049 1865.400024 2162.100098 1871.599976 2164.899902 C 1877.800049 2167.600098 1884.500000 2169.000000 1891.599976 2169.000000 C 1898.900024 2169.000000 1905.599976 2167.600098 1911.800049 2164.800049 C 1918.000000 2162.000000 1923.300049 2158.199951 1927.800049 2153.399902 C 1932.199951 2148.600098 1935.699951 2143.000000 1938.199951 2136.600098 C 1940.699951 2130.100098 1942.000000 2123.300049 1942.000000 2116.000000 L 1942.000000 2115.500000 L 1941.900024 2115.500000 Z" fill="#F16622"/><path d=" M 2168.000000 2177.500000 L 2168.000000 2103.699951 C 2168.000000 2090.199951 2164.800049 2079.800049 2158.399902 2072.399902 C 2152.000000 2065.000000 2143.100098 2061.300049 2131.699951 2061.300049 C 2126.600098 2061.300049 2121.600098 2062.300049 2116.899902 2064.199951 C 2112.199951 2066.100098 2108.000000 2069.000000 2104.500000 2072.699951 C 2101.000000 2076.399902 2098.199951 2081.000000 2096.100098 2086.500000 C 2094.000000 2091.899902 2093.000000 2098.100098 2093.000000 2105.100098 L 2093.000000 2177.399902 L 2081.199951 2177.399902 L 2081.199951 2102.899902 C 2081.199951 2089.899902 2078.000000 2079.699951 2071.600098 2072.300049 C 2065.199951 2064.899902 2056.399902 2061.199951 2045.400024 2061.199951 C 2039.900024 2061.199951 2034.800049 2062.300049 2030.000000 2064.600098 C 2025.199951 2066.899902 2021.000000 2070.000000 2017.500000 2074.100098 C 2014.000000 2078.199951 2011.199951 2082.899902 2009.199951 2088.199951 C 2007.199951 2093.600098 2006.199951 2099.399902 2006.199951 2105.699951 L 2006.199951 2177.300049 L 1994.400024 2177.300049 L 1994.400024 2053.100098 L 2006.199951 2053.100098 L 2006.199951 2075.300049 C 2008.099976 2072.100098 2010.300049 2068.899902 2012.800049 2065.899902 C 2015.300049 2062.899902 2018.099976 2060.199951 2021.400024 2057.899902 C 2024.599976 2055.500000 2028.300049 2053.699951 2032.599976 2052.300049 C 2036.900024 2050.899902 2041.699951 2050.199951 2047.199951 2050.199951 C 2052.500000 2050.199951 2057.399902 2050.899902 2061.800049 2052.399902 C 2066.199951 2053.899902 2070.100098 2055.800049 2073.500000 2058.199951 C 2076.899902 2060.600098 2079.800049 2063.500000 2082.300049 2066.699951 C 2084.800049 2069.899902 2086.899902 2073.399902 2088.699951 2076.899902 C 2090.600098 2073.500000 2093.000000 2070.199951 2095.699951 2066.899902 C 2098.399902 2063.699951 2101.600098 2060.800049 2105.199951 2058.300049 C 2108.800049 2055.800049 2112.899902 2053.800049 2117.500000 2052.300049 C 2122.100098 2050.800049 2127.300049 2050.100098 2133.000000 2050.100098 C 2140.199951 2050.100098 2146.800049 2051.399902 2152.600098 2053.899902 C 2158.399902 2056.399902 2163.399902 2059.899902 2167.500000 2064.399902 C 2171.600098 2068.899902 2174.699951 2074.300049 2176.899902 2080.699951 C 2179.100098 2087.100098 2180.100098 2094.199951 2180.100098 2102.000000 L 2180.100098 2177.199951 L 2168.000000 2177.199951 L 2168.000000 2177.500000 Z" fill="#F16622"/><path d=" M 2343.399902 2142.600098 C 2339.899902 2150.600098 2335.399902 2157.399902 2329.800049 2163.000000 C 2324.199951 2168.600098 2317.800049 2172.899902 2310.699951 2175.899902 C 2303.600098 2178.899902 2296.300049 2180.399902 2288.899902 2180.399902 C 2282.800049 2180.399902 2277.199951 2179.600098 2272.000000 2178.000000 C 2266.800049 2176.399902 2262.199951 2174.199951 2258.199951 2171.399902 C 2254.100098 2168.600098 2250.399902 2165.500000 2247.100098 2161.899902 C 2243.800049 2158.300049 2240.899902 2154.600098 2238.300049 2150.699951 L 2238.300049 2216.399902 L 2226.500000 2216.399902 L 2226.500000 2053.300049 L 2238.300049 2053.300049 L 2238.300049 2081.100098 C 2240.899902 2077.000000 2243.800049 2073.199951 2247.199951 2069.399902 C 2250.600098 2065.699951 2254.300049 2062.399902 2258.399902 2059.699951 C 2262.500000 2056.899902 2267.100098 2054.699951 2272.100098 2053.000000 C 2277.199951 2051.300049 2282.699951 2050.399902 2288.800049 2050.399902 C 2296.199951 2050.399902 2303.399902 2051.899902 2310.600098 2054.800049 C 2317.699951 2057.699951 2324.100098 2061.899902 2329.699951 2067.500000 C 2335.300049 2073.000000 2339.800049 2079.800049 2343.300049 2087.800049 C 2346.800049 2095.800049 2348.500000 2104.899902 2348.500000 2114.899902 L 2348.500000 2115.399902 C 2348.600098 2125.500000 2346.899902 2134.600098 2343.399902 2142.600098 Z M 2336.100098 2115.500000 C 2336.100098 2107.399902 2334.800049 2100.000000 2332.199951 2093.300049 C 2329.600098 2086.600098 2326.100098 2081.000000 2321.699951 2076.399902 C 2317.300049 2071.800049 2312.100098 2068.199951 2306.300049 2065.699951 C 2300.399902 2063.199951 2294.300049 2061.899902 2287.800049 2061.899902 C 2281.399902 2061.899902 2275.100098 2063.199951 2269.100098 2065.800049 C 2263.100098 2068.399902 2257.699951 2072.000000 2253.100098 2076.800049 C 2248.399902 2081.500000 2244.699951 2087.100098 2241.899902 2093.600098 C 2239.100098 2100.100098 2237.699951 2107.300049 2237.699951 2115.300049 L 2237.699951 2115.800049 C 2237.699951 2123.800049 2239.100098 2131.000000 2241.899902 2137.600098 C 2244.699951 2144.199951 2248.500000 2149.800049 2253.100098 2154.399902 C 2257.800049 2159.000000 2263.100098 2162.600098 2269.100098 2165.199951 C 2275.100098 2167.800049 2281.399902 2169.100098 2287.800049 2169.100098 C 2294.600098 2169.100098 2300.899902 2167.899902 2306.699951 2165.500000 C 2312.600098 2163.100098 2317.699951 2159.600098 2322.000000 2155.000000 C 2326.300049 2150.500000 2329.800049 2144.899902 2332.300049 2138.300049 C 2334.800049 2131.699951 2336.000000 2124.300049 2336.000000 2116.000000 L 2336.100098 2115.500000 L 2336.100098 2115.500000 Z" fill="#F16622"/><path d=" M 2473.100098 2177.500000 L 2473.100098 2156.800049 C 2471.000000 2159.699951 2468.500000 2162.600098 2465.500000 2165.399902 C 2462.500000 2168.199951 2459.100098 2170.800049 2455.300049 2172.899902 C 2451.399902 2175.100098 2447.100098 2176.899902 2442.199951 2178.300049 C 2437.300049 2179.699951 2432.000000 2180.399902 2426.199951 2180.399902 C 2420.399902 2180.399902 2414.699951 2179.600098 2409.100098 2178.000000 C 2403.500000 2176.399902 2398.399902 2173.899902 2393.899902 2170.699951 C 2389.399902 2167.500000 2385.699951 2163.399902 2382.899902 2158.500000 C 2380.100098 2153.600098 2378.699951 2148.000000 2378.699951 2141.500000 L 2378.699951 2141.000000 C 2378.699951 2134.500000 2380.000000 2128.699951 2382.699951 2123.699951 C 2385.300049 2118.699951 2389.000000 2114.399902 2393.699951 2111.000000 C 2398.399902 2107.600098 2404.000000 2105.000000 2410.600098 2103.199951 C 2417.199951 2101.399902 2424.500000 2100.500000 2432.500000 2100.500000 C 2441.199951 2100.500000 2448.600098 2101.000000 2454.899902 2102.000000 C 2461.199951 2103.000000 2467.300049 2104.300049 2473.199951 2105.899902 L 2473.199951 2100.600098 C 2473.199951 2088.000000 2469.600098 2078.600098 2462.500000 2072.300049 C 2455.399902 2066.000000 2445.399902 2062.899902 2432.800049 2062.899902 C 2425.300049 2062.899902 2418.300049 2063.800049 2412.100098 2065.699951 C 2405.800049 2067.600098 2399.899902 2070.000000 2394.300049 2072.899902 L 2390.000000 2062.399902 C 2396.699951 2059.100098 2403.600098 2056.399902 2410.500000 2054.399902 C 2417.399902 2052.399902 2425.100098 2051.399902 2433.600098 2051.399902 C 2449.500000 2051.399902 2462.000000 2055.500000 2471.199951 2063.600098 C 2480.300049 2071.699951 2484.899902 2083.899902 2484.899902 2100.100098 L 2484.899902 2177.500000 L 2473.100098 2177.500000 Z M 2473.399902 2116.899902 C 2468.300049 2115.600098 2462.199951 2114.399902 2455.300049 2113.100098 C 2448.399902 2111.899902 2440.500000 2111.300049 2431.699951 2111.300049 C 2418.699951 2111.300049 2408.699951 2113.899902 2401.699951 2119.199951 C 2394.699951 2124.500000 2391.199951 2131.399902 2391.199951 2140.199951 L 2391.199951 2140.699951 C 2391.199951 2145.199951 2392.199951 2149.199951 2394.100098 2152.699951 C 2396.000000 2156.199951 2398.600098 2159.100098 2401.899902 2161.500000 C 2405.199951 2163.899902 2409.000000 2165.800049 2413.300049 2167.100098 C 2417.600098 2168.399902 2422.100098 2169.000000 2426.800049 2169.000000 C 2433.100098 2169.000000 2439.000000 2168.100098 2444.600098 2166.199951 C 2450.199951 2164.300049 2455.199951 2161.800049 2459.399902 2158.399902 C 2463.699951 2155.100098 2467.000000 2151.100098 2469.500000 2146.399902 C 2472.000000 2141.699951 2473.199951 2136.500000 2473.199951 2130.899902 L 2473.199951 2116.899902 L 2473.399902 2116.899902 Z" fill="#F16622"/><path d=" M 2623.899902 2177.500000 L 2623.899902 2103.699951 C 2623.899902 2090.899902 2620.500000 2080.600098 2613.800049 2072.899902 C 2607.100098 2065.199951 2597.399902 2061.300049 2584.899902 2061.300049 C 2578.800049 2061.300049 2573.199951 2062.399902 2568.000000 2064.600098 C 2562.899902 2066.800049 2558.399902 2069.800049 2554.500000 2073.699951 C 2550.600098 2077.600098 2547.600098 2082.300049 2545.500000 2087.699951 C 2543.300049 2093.100098 2542.300049 2099.100098 2542.300049 2105.600098 L 2542.300049 2177.399902 L 2530.500000 2177.399902 L 2530.500000 2053.199951 L 2542.300049 2053.199951 L 2542.300049 2076.300049 C 2546.500000 2069.000000 2552.100098 2062.800049 2559.199951 2057.800049 C 2566.300049 2052.800049 2575.399902 2050.300049 2586.699951 2050.300049 C 2594.399902 2050.300049 2601.300049 2051.600098 2607.399902 2054.100098 C 2613.500000 2056.600098 2618.699951 2060.100098 2622.899902 2064.699951 C 2627.100098 2069.199951 2630.399902 2074.600098 2632.500000 2080.899902 C 2634.699951 2087.100098 2635.699951 2094.000000 2635.699951 2101.500000 L 2635.699951 2177.399902 L 2623.899902 2177.500000 L 2623.899902 2177.500000 Z" fill="#F16622"/><path d=" M 2733.699951 2181.899902 C 2728.199951 2194.899902 2722.300049 2204.000000 2715.800049 2209.300049 C 2709.300049 2214.600098 2701.600098 2217.199951 2692.800049 2217.199951 C 2688.100098 2217.199951 2684.000000 2216.699951 2680.300049 2215.800049 C 2676.600098 2214.899902 2672.699951 2213.500000 2668.500000 2211.699951 L 2672.600098 2201.100098 C 2675.800049 2202.699951 2678.899902 2203.899902 2682.000000 2204.600098 C 2685.000000 2205.300049 2688.899902 2205.699951 2693.600098 2205.699951 C 2696.800049 2205.699951 2699.800049 2205.199951 2702.500000 2204.199951 C 2705.199951 2203.199951 2707.800049 2201.600098 2710.199951 2199.199951 C 2712.600098 2196.800049 2714.899902 2193.800049 2717.199951 2190.100098 C 2719.399902 2186.399902 2721.699951 2181.800049 2723.899902 2176.500000 L 2664.899902 2053.300049 L 2678.600098 2053.300049 L 2729.699951 2164.300049 L 2774.000000 2053.300049 L 2787.000000 2053.300049 L 2733.699951 2181.899902 Z" fill="#F16622"/></g></g></g></svg>