<?xml version="1.0" encoding="utf-8"?>
<!-- Generator: Adobe Illustrator 21.0.0, SVG Export Plug-In . SVG Version: 6.00 Build 0)  -->
<svg version="1.1" xmlns="http://www.w3.org/2000/svg" xmlns:xlink="http://www.w3.org/1999/xlink" x="0px" y="0px"
	 viewBox="0 0 4000 3326" style="enable-background:new 0 0 4000 3326;" xml:space="preserve">
<style type="text/css">
	.st0{fill:#FF6600;}
	.st1{enable-background:new    ;}
	.st2{display:none;}
	.st3{display:inline;}
	.st4{font-family:'Gotham-Bold';}
	.st5{font-size:119.6798px;}
	.st6{letter-spacing:1;}
	.st7{fill:#FFFFFF;}
	.st8{font-family:'Gotham-Book';}
	.st9{font-size:786.662px;}
	.st10{font-family:'Gotham-Light';}
	.st11{font-size:185.0887px;}
	.st12{letter-spacing:2.1;}
	.st13{font-size:317.9773px;}
	.st14{letter-spacing:4.3;}
</style>
<g id="Layer_4">
</g>
<g id="Logotype">
	<g transform="matrix(1.3511158452231724, 0, 0, 1.3511158452231724, 12.027972027972028, 51.233262321652425)">
		<g>
			<path id="rnd1" class="st0" d="M883,537.8v304.3l32.2,17.8l38.9,20.6l253.7,141.2l323.9,180l237.1,133l53.6,29.7l17.5,9.6
				l276-150.8V537.8l-616.5-342.7L883,537.8z M2044.9,1183.4l-203,112.9l-274.6-152.6l-323.9-180L954.1,802.8V577.5l545.4-303.4
				l545.4,303.4V1183.4z"/>
			<path id="rnd2" class="st0" d="M1770.8,1415.1l-44.6-24.7l0,0l-189.7-106.5l-426.8-236.2L920,941.2l0,0l-37-19.6v301.6
				l616.5,342.7L1770.8,1415.1z M954.1,1039l545.4,302.9l0,0l129.9,72.2l-129.9,72.7l-545.4-303.4V1039z"/>
		</g>
	</g>
	<g transform="matrix(0.7597144556331661, 0, 0, 0.7597144556331661, 54.91437182161302, 73.89442628884687)">
	</g>
	<g transform="matrix(0.7597144556331661, 0, 0, 0.7597144556331661, 54.91437182161302, 73.89442628884687)">
	</g>
</g>
<g id="Layer_2">
	<g class="st2">
		<path class="st3" d="M1502.4,1601.8c-7.3,15.3-17.3,28-30.1,38.3c-12.8,10.3-27.7,18-44.8,23.1c-17.1,5.1-35.4,7.7-55,7.7h-58.2
			v104.4h-76.6v-348.1h142.2c20.9,0,39.5,2.9,56,8.7c16.4,5.8,30.3,14,41.8,24.6c11.4,10.6,20.2,23.3,26.4,38
			c6.1,14.8,9.2,31.1,9.2,49v1C1513.4,1568.8,1509.7,1586.5,1502.4,1601.8z M1435.8,1549.1c0-17.2-5.6-30.3-16.7-39.3
			c-11.1-9-26.3-13.4-45.5-13.4h-59.2v106.4h60.7c19.2,0,34.1-5.1,44.8-15.2c10.6-10.1,15.9-22.6,15.9-37.5V1549.1z"/>
		<path class="st3" d="M1804.3,1696.5c-7.3,16.7-17.4,31.4-30.3,44c-12.9,12.6-28.2,22.6-45.8,29.8c-17.6,7.3-36.8,10.9-57.7,10.9
			c-20.6,0-39.6-3.6-57.2-10.7c-17.6-7.1-32.7-16.9-45.5-29.3c-12.8-12.4-22.8-27-30.1-43.8c-7.3-16.7-10.9-34.7-10.9-54v-1
			c0-19.2,3.6-37.2,10.9-54c7.3-16.7,17.4-31.4,30.3-44c12.9-12.6,28.2-22.5,45.8-29.8c17.6-7.3,36.8-10.9,57.7-10.9
			c20.6,0,39.6,3.6,57.2,10.7c17.6,7.1,32.7,16.9,45.5,29.3c12.8,12.4,22.8,27,30.1,43.8c7.3,16.7,10.9,34.7,10.9,54v1
			C1815.3,1661.8,1811.6,1679.8,1804.3,1696.5z M1740.7,1642.6c0-9.9-1.7-19.3-5-28.1c-3.3-8.8-8.1-16.6-14.4-23.4
			c-6.3-6.8-13.8-12.2-22.4-16.2c-8.6-4-18.1-6-28.3-6c-10.9,0-20.6,1.9-29.1,5.7c-8.5,3.8-15.7,9-21.6,15.7
			c-6,6.6-10.5,14.3-13.7,23.1c-3.2,8.8-4.7,18.2-4.7,28.1v1c0,9.9,1.7,19.3,5,28.1c3.3,8.8,8.1,16.6,14.4,23.4
			c6.3,6.8,13.7,12.2,22.1,16.2s18,6,28.6,6c10.9,0,20.6-1.9,29.1-5.7c8.5-3.8,15.7-9,21.6-15.7c6-6.6,10.5-14.3,13.7-23.1
			c3.1-8.8,4.7-18.2,4.7-28.1V1642.6z"/>
		<path class="st3" d="M2035.3,1732.8c-5.1,10.8-12.4,19.6-21.6,26.6c-9.3,7-20.1,12.2-32.6,15.7s-25.8,5.2-40,5.2
			c-18.9,0-38.2-3.2-57.9-9.7c-19.7-6.5-38.5-16.7-56.4-30.6l32.3-49.7c14.6,10.6,29.1,18.6,43.5,23.9c14.4,5.3,27.9,8,40.5,8
			c10.9,0,19-1.8,24.1-5.5c5.1-3.6,7.7-8.5,7.7-14.4v-1c0-4-1.5-7.5-4.5-10.4s-7-5.5-12.2-7.7c-5.1-2.2-11-4.2-17.7-6.2
			c-6.6-2-13.6-4.1-20.9-6.5c-9.3-2.7-18.6-5.9-28.1-9.7c-9.4-3.8-18-8.8-25.6-14.9c-7.6-6.1-13.8-13.7-18.7-22.6
			c-4.8-9-7.2-19.9-7.2-32.8v-1c0-13.6,2.6-25.6,7.7-36.1c5.1-10.4,12.1-19.3,20.9-26.6c8.8-7.3,19.1-12.8,30.8-16.4
			c11.8-3.6,24.4-5.5,38-5.5c16.9,0,34.1,2.7,51.5,8.2s33.4,13,48,22.6l-28.8,52.2c-13.3-7.6-26.2-13.7-38.8-18.2
			c-12.6-4.5-23.7-6.7-33.3-6.7c-9.3,0-16.2,1.7-20.9,5.2c-4.6,3.5-7,7.9-7,13.2v1c0,3.7,1.5,6.9,4.5,9.7c3,2.8,7,5.5,11.9,8
			c5,2.5,10.7,4.9,17.2,7.2c6.5,2.3,13.3,4.6,20.6,7c9.3,3,18.7,6.6,28.3,10.7c9.6,4.1,18.2,9.2,25.9,15.2
			c7.6,6,13.9,13.3,18.9,21.9c5,8.6,7.5,19.1,7.5,31.3v1C2043,1709.2,2040.5,1722.1,2035.3,1732.8z"/>
		<path class="st3" d="M2360.8,1745c-9.6,7.6-20.1,14.2-31.6,19.6c-11.4,5.5-24,9.6-37.5,12.4c-13.6,2.8-28.8,4.2-45.8,4.2
			c-25.5,0-49.2-4.6-71.1-13.9c-21.9-9.3-40.8-22-56.7-38c-15.9-16.1-28.3-35.1-37.3-56.9c-9-21.9-13.4-45.3-13.4-70.1v-1
			c0-24.9,4.5-48.2,13.4-69.9c9-21.7,21.4-40.8,37.3-57.2c15.9-16.4,35-29.3,57.2-38.8c22.2-9.4,46.7-14.2,73.6-14.2
			c16.2,0,31.1,1.3,44.5,4c13.4,2.7,25.6,6.3,36.6,10.9c10.9,4.6,21.1,10.3,30.3,16.9c9.3,6.6,17.9,13.9,25.9,21.9l-48.7,56.2
			c-13.6-12.3-27.4-21.9-41.5-28.8c-14.1-7-29.9-10.4-47.5-10.4c-14.6,0-28.1,2.8-40.5,8.5c-12.4,5.6-23.1,13.4-32.1,23.4
			s-15.9,21.5-20.9,34.6c-5,13.1-7.5,27.1-7.5,42v1c0,14.9,2.5,29,7.5,42.3c5,13.3,11.9,24.9,20.6,34.8c8.8,9.9,19.4,17.8,31.8,23.6
			c12.4,5.8,26.1,8.7,41,8.7c19.9,0,36.7-3.6,50.5-10.9c13.8-7.3,27.4-17.2,41-29.8l48.7,49.2
			C2379.7,1728.8,2370.5,1737.4,2360.8,1745z"/>
		<path class="st3" d="M2423,1775.4v-363.1h75.6v363.1H2423z"/>
		<path class="st3" d="M2811.9,1696.5c-7.3,16.7-17.4,31.4-30.3,44c-12.9,12.6-28.2,22.6-45.8,29.8c-17.6,7.3-36.8,10.9-57.7,10.9
			c-20.6,0-39.6-3.6-57.2-10.7c-17.6-7.1-32.7-16.9-45.5-29.3c-12.8-12.4-22.8-27-30.1-43.8c-7.3-16.7-10.9-34.7-10.9-54v-1
			c0-19.2,3.6-37.2,10.9-54c7.3-16.7,17.4-31.4,30.3-44c12.9-12.6,28.2-22.5,45.8-29.8c17.6-7.3,36.8-10.9,57.7-10.9
			c20.6,0,39.6,3.6,57.2,10.7c17.6,7.1,32.7,16.9,45.5,29.3c12.8,12.4,22.8,27,30.1,43.8c7.3,16.7,10.9,34.7,10.9,54v1
			C2822.9,1661.8,2819.2,1679.8,2811.9,1696.5z M2748.3,1642.6c0-9.9-1.7-19.3-5-28.1c-3.3-8.8-8.1-16.6-14.4-23.4
			c-6.3-6.8-13.8-12.2-22.4-16.2c-8.6-4-18.1-6-28.3-6c-10.9,0-20.6,1.9-29.1,5.7c-8.5,3.8-15.7,9-21.6,15.7
			c-6,6.6-10.5,14.3-13.7,23.1c-3.2,8.8-4.7,18.2-4.7,28.1v1c0,9.9,1.7,19.3,5,28.1c3.3,8.8,8.1,16.6,14.4,23.4
			c6.3,6.8,13.7,12.2,22.1,16.2c8.5,4,18,6,28.6,6c10.9,0,20.6-1.9,29.1-5.7c8.5-3.8,15.7-9,21.6-15.7c6-6.6,10.5-14.3,13.7-23.1
			c3.1-8.8,4.7-18.2,4.7-28.1V1642.6z"/>
		<path class="st3" d="M3021.8,1775.4v-38.1c-4.3,5.7-9,11.1-14.2,16.3c-5.1,5.2-10.9,9.8-17.2,13.8c-6.3,4-13.3,7.2-20.9,9.5
			c-7.6,2.3-16.2,3.5-25.9,3.5c-28.8,0-51.1-8.8-66.9-26.4c-15.8-17.6-23.6-41.8-23.6-72.6v-172.6h75.6v148.3
			c0,17.9,4,31.3,11.9,40.4c8,9.1,19.2,13.6,33.8,13.6c14.6,0,26.1-4.5,34.6-13.6c8.5-9.1,12.7-22.6,12.7-40.4v-148.3h75.6v266.6
			H3021.8z"/>
		<path class="st3" d="M3335.1,1775.4v-38c-9.3,12.5-20.5,22.8-33.6,30.8c-13.1,8.1-29.6,12.1-49.5,12.1c-15.6,0-30.7-3-45.3-9
			c-14.6-6-27.5-14.8-38.8-26.6c-11.3-11.8-20.3-26.2-27.1-43.3c-6.8-17.1-10.2-36.7-10.2-58.9v-1c0-22.2,3.4-41.9,10.2-58.9
			c6.8-17.1,15.7-31.5,26.9-43.3c11.1-11.8,24-20.6,38.5-26.6c14.6-6,29.8-9,45.8-9c20.2,0,36.9,3.9,50,11.8
			c13.1,7.9,24.1,17.1,33.1,27.6v-131h75.6v363.1H3335.1z M3336.1,1641.6c0-11-1.7-21.1-5.2-30.3c-3.5-9.2-8.1-17-13.9-23.5
			c-5.8-6.5-12.6-11.5-20.4-15c-7.8-3.5-16.2-5.3-25.1-5.3s-17.3,1.8-25.1,5.3c-7.8,3.5-14.7,8.5-20.6,15s-10.7,14.3-14.2,23.3
			c-3.5,9-5.2,19.2-5.2,30.5v1c0,11,1.7,21.1,5.2,30.3c3.5,9.2,8.2,17,14.2,23.5c6,6.5,12.8,11.5,20.6,15c7.8,3.5,16.2,5.3,25.1,5.3
			s17.3-1.7,25.1-5.3c7.8-3.5,14.6-8.5,20.4-15c5.8-6.5,10.4-14.4,13.9-23.5c3.5-9.2,5.2-19.3,5.2-30.3V1641.6z"/>
	</g>
</g>
<g id="Layer_3" class="st2">
	<g class="st3">
		<text transform="matrix(1 0 0 1 2377.4861 1903.3497)" class="st0 st4 st5 st6">A DLO Company</text>
	</g>
	<g class="st3">
		<text transform="matrix(1 0 0 1 6790.6079 1903.3496)" class="st7 st4 st5 st6">A DLO Company</text>
	</g>
	<g class="st3">
		<text transform="matrix(1 0 0 1 2377.4866 5527.3496)" class="st7 st4 st5 st6">A DLO Company</text>
	</g>
	<g class="st3">
		<text transform="matrix(1 0 0 1 6790.6074 5527.3496)" class="st4 st5 st6">A DLO Company</text>
	</g>
</g>
<g id="PosCLoud">
	<text transform="matrix(0.9341 0 0 1 297.995 2997.0039)" class="st8 st9">PosCloud</text>
</g>
<g id="Layer_7">
	<text transform="matrix(0.9549 0 0 0.93 3763.8301 2496.79)" class="st10 st11 st12">®</text>
</g>
<g id="DLO" class="st2">
	<g class="st3">
		<text transform="matrix(0.92 0 0 0.93 1184.271 2112.3506)" class="st0 st10 st13 st14">A DLO Company</text>
	</g>
	<g class="st3">
		<text transform="matrix(0.92 0 0 0.93 2141 5581.979)" class="st7 st10" style="font-size:169.491px; letter-spacing:2.2;">A DLO Company</text>
	</g>
</g>
</svg>
